<svg width="24" height="24" viewBox="0 0 24 24" fill="none" xmlns="http://www.w3.org/2000/svg">
<path d="M2.40002 12.6C2.40002 11.6059 3.20591 10.8 4.20002 10.8C5.19414 10.8 6.00002 11.6059 6.00002 12.6V19.8C6.00002 20.7941 5.19414 21.6 4.20002 21.6C3.20591 21.6 2.40002 20.7941 2.40002 19.8V12.6Z" fill="#111827"/>
<path d="M7.20002 12.4V18.9167C7.20002 19.8258 7.71363 20.6568 8.52671 21.0633L8.58653 21.0932C9.25303 21.4265 9.98797 21.6 10.7332 21.6H17.2325C18.3765 21.6 19.3615 20.7925 19.5859 19.6707L21.0259 12.4707C21.3229 10.9856 20.187 9.59999 18.6725 9.59999H14.4V4.79999C14.4 3.47451 13.3255 2.39999 12 2.39999C11.3373 2.39999 10.8 2.93725 10.8 3.59999V4.39999C10.8 5.43857 10.4632 6.44913 9.84002 7.27999L8.16002 9.51999C7.53688 10.3509 7.20002 11.3614 7.20002 12.4Z" fill="#111827"/>
<path d="M2.40002 12.6C2.40002 11.6059 3.20591 10.8 4.20002 10.8C5.19414 10.8 6.00002 11.6059 6.00002 12.6V19.8C6.00002 20.7941 5.19414 21.6 4.20002 21.6C3.20591 21.6 2.40002 20.7941 2.40002 19.8V12.6Z" stroke="white" stroke-width="2"/>
<path d="M7.20002 12.4V18.9167C7.20002 19.8258 7.71363 20.6568 8.52671 21.0633L8.58653 21.0932C9.25303 21.4265 9.98797 21.6 10.7332 21.6H17.2325C18.3765 21.6 19.3615 20.7925 19.5859 19.6707L21.0259 12.4707C21.3229 10.9856 20.187 9.59999 18.6725 9.59999H14.4V4.79999C14.4 3.47451 13.3255 2.39999 12 2.39999C11.3373 2.39999 10.8 2.93725 10.8 3.59999V4.39999C10.8 5.43857 10.4632 6.44913 9.84002 7.27999L8.16002 9.51999C7.53688 10.3509 7.20002 11.3614 7.20002 12.4Z" stroke="white" stroke-width="2"/>
</svg>
