<svg width="20" height="21" viewBox="0 0 20 21" fill="none" xmlns="http://www.w3.org/2000/svg">
<path d="M7.42504 17.725C7.26671 17.725 7.10837 17.6667 6.98337 17.5417C6.74171 17.3 6.74171 16.9 6.98337 16.6583L12.4167 11.225C12.8167 10.825 12.8167 10.175 12.4167 9.77499L6.98337 4.34165C6.74171 4.09999 6.74171 3.69999 6.98337 3.45832C7.22504 3.21665 7.62504 3.21665 7.86671 3.45832L13.3 8.89165C13.725 9.31665 13.9667 9.89165 13.9667 10.5C13.9667 11.1083 13.7334 11.6833 13.3 12.1083L7.86671 17.5417C7.74171 17.6583 7.58337 17.725 7.42504 17.725Z" fill="#F9F9F9"/>
</svg>
