<svg width="20" height="20" viewBox="0 0 20 20" fill="none" xmlns="http://www.w3.org/2000/svg">
<path d="M7.42504 17.225C7.26671 17.225 7.10837 17.1667 6.98337 17.0417C6.74171 16.8 6.74171 16.4 6.98337 16.1583L12.4167 10.725C12.8167 10.325 12.8167 9.67502 12.4167 9.27502L6.98337 3.84168C6.74171 3.60002 6.74171 3.20002 6.98337 2.95835C7.22504 2.71668 7.62504 2.71668 7.86671 2.95835L13.3 8.39168C13.725 8.81668 13.9667 9.39168 13.9667 10C13.9667 10.6083 13.7334 11.1833 13.3 11.6083L7.86671 17.0417C7.74171 17.1583 7.58337 17.225 7.42504 17.225Z" fill="#F9F9F9"/>
</svg>
